<?xml version="1.0" encoding="UTF-8"?>
<svg id="Layer_2" data-name="Layer 2" xmlns="http://www.w3.org/2000/svg" viewBox="0 0 619.83 267.98">
  <defs>
    <style>
      .cls-1, .cls-2 {
        fill: #fff;
      }

      .cls-2 {
        stroke-width: 0px;
      }
    </style>
  </defs>
  <g id="Layer_1-2" data-name="Layer 1">
    <g>
      <g>
        <path class="cls-2" d="M148.73,0v47.45h51.33c65.94,0,106.06,39.36,106.06,92s-40.13,92.01-106.06,92.01h-51.33v36.53h471.11V0H148.73ZM452.27,231.46l-33.73-50.86-33.48,50.86h-59.8l65.17-92.51-64.91-91.49h59.8l33.22,50.6,33.48-50.6h59.55l-64.91,91.49,65.17,92.51h-59.55Z"/>
        <path class="cls-2" d="M252.2,139.45c0-24.28-17.38-47.02-52.91-47.02h-10.22v94.05h10.22c35.53,0,52.91-22.49,52.91-47.02Z"/>
      </g>
      <polygon class="cls-1" points="60.57 38.94 0 187.17 91.75 187.17 91.75 222.95 137.49 222.95 137.49 187.17 157.94 187.17 157.94 143.72 137.49 143.72 137.49 106.15 93.02 106.15 93.02 143.72 70.02 143.72 111.43 38.94 60.57 38.94"/>
    </g>
  </g>
</svg>