<svg width="42" height="48" viewBox="0 0 42 48" fill="#a4daf0" xmlns="http://www.w3.org/2000/svg">
<g clip-path="url(#clip0_378_3097)">
<path d="M21.0094 13.2187C15.0469 13.2187 10.2375 18.0281 10.2375 23.9906C10.2375 29.9531 15.0469 34.7625 21.0094 34.7625C26.9719 34.7625 31.7812 29.9531 31.7812 23.9906C31.7812 18.0281 26.9719 13.2187 21.0094 13.2187ZM21.0094 30.9937C17.1562 30.9937 14.0062 27.8531 14.0062 23.9906C14.0062 20.1281 17.1469 16.9875 21.0094 16.9875C24.8719 16.9875 28.0125 20.1281 28.0125 23.9906C28.0125 27.8531 24.8625 30.9937 21.0094 30.9937ZM34.7344 12.7781C34.7344 14.175 33.6094 15.2906 32.2219 15.2906C30.825 15.2906 29.7094 14.1656 29.7094 12.7781C29.7094 11.3906 30.8344 10.2656 32.2219 10.2656C33.6094 10.2656 34.7344 11.3906 34.7344 12.7781ZM41.8687 15.3281C41.7094 11.9625 40.9406 8.98124 38.475 6.52499C36.0187 4.06874 33.0375 3.29999 29.6719 3.13124C26.2031 2.93436 15.8062 2.93436 12.3375 3.13124C8.98125 3.29061 6 4.05936 3.53437 6.51561C1.06875 8.97186 0.309372 11.9531 0.140622 15.3187C-0.056253 18.7875 -0.056253 29.1844 0.140622 32.6531C0.299997 36.0187 1.06875 39 3.53437 41.4562C6 43.9125 8.97187 44.6812 12.3375 44.85C15.8062 45.0469 26.2031 45.0469 29.6719 44.85C33.0375 44.6906 36.0187 43.9219 38.475 41.4562C40.9312 39 41.7 36.0187 41.8687 32.6531C42.0656 29.1844 42.0656 18.7969 41.8687 15.3281ZM37.3875 36.375C36.6562 38.2125 35.2406 39.6281 33.3937 40.3687C30.6281 41.4656 24.0656 41.2125 21.0094 41.2125C17.9531 41.2125 11.3812 41.4562 8.625 40.3687C6.7875 39.6375 5.37187 38.2219 4.63125 36.375C3.53437 33.6094 3.7875 27.0469 3.7875 23.9906C3.7875 20.9344 3.54375 14.3625 4.63125 11.6062C5.3625 9.76874 6.77812 8.35311 8.625 7.61249C11.3906 6.51561 17.9531 6.76874 21.0094 6.76874C24.0656 6.76874 30.6375 6.52499 33.3937 7.61249C35.2313 8.34374 36.6469 9.75936 37.3875 11.6062C38.4844 14.3719 38.2312 20.9344 38.2312 23.9906C38.2312 27.0469 38.4844 33.6187 37.3875 36.375Z" fill="#a4daf0"/>
</g>
<defs>
<clipPath id="clip0_378_3097">
<rect width="42" height="48" fill="$iceblue"/>
</clipPath>
</defs>
</svg>
