<?xml version="1.0" encoding="UTF-8"?>
<svg id="Layer_2" data-name="Layer 2" xmlns="http://www.w3.org/2000/svg" viewBox="0 0 376.08 561.67">
  <defs>
    <style>
      .cls-1 {
        fill: #e7eff9;
        stroke-width: 0px;
      }
    </style>
  </defs>
  <g id="Layer_1-2" data-name="Layer 1">
    <g>
      <polygon class="cls-1" points="266.15 329.45 22.59 252.47 198.62 0 306.74 115.76 101.81 229.34 266.15 329.45"/>
      <polygon class="cls-1" points="317.96 148.33 208.1 265.38 288.92 323.07 370.62 294.24 353.27 250.91 269.31 276.38 341.69 217.75 317.96 148.33"/>
      <polygon class="cls-1" points="137.98 440.14 164.01 483.93 102.44 480.35 179.22 336.6 0 280.75 39.27 559.07 203.61 561.67 190.4 341.78 137.98 440.14"/>
      <path class="cls-1" d="M198.66,258.4l90.09-105.08-151.84,73.41,61.74,31.67ZM243.33,191.89l-45.27,41.18-25.19-5.65,70.46-35.53Z"/>
      <path class="cls-1" d="M216.56,357.16l8.46,203.66,108-29.12-56.57-89.01,66.55,9.98,33.07-141.54-159.52,46.03ZM258.11,415.32l86.43-71.63-17.51,87.98-68.92-16.35Z"/>
    </g>
  </g>
</svg>