<svg width="24" height="22" viewBox="0 0 24 22" fill="none" xmlns="http://www.w3.org/2000/svg">
<g clip-path="url(#clip0_487_367)">
<path d="M14.1375 15.2958C15.275 15.1333 16.3 14.4875 16.9375 13.5083L23.675 3.0875C24.2 2.275 24.0667 1.2 23.3583 0.537501C22.65 -0.124999 21.5708 -0.183332 20.7958 0.400001L10.9333 7.8C9.93334 8.55 9.34167 9.72083 9.33334 10.9708L14.1375 15.2958ZM13.3208 16.3542L8.4875 12.0042C5.99584 12.0958 4 14.15 4 16.6667C4 16.8292 4.00834 16.9917 4.025 17.15C4.1 17.8792 3.6 18.6667 2.86667 18.6667H2.66667C1.92917 18.6667 1.33334 19.2625 1.33334 20C1.33334 20.7375 1.92917 21.3333 2.66667 21.3333H8.66667C11.2458 21.3333 13.3333 19.2458 13.3333 16.6667C13.3333 16.5625 13.3292 16.4583 13.325 16.3542H13.3208Z" fill="#C9CACB"/>
</g>
<defs>
<clipPath id="clip0_487_367">
<rect width="24" height="21.3333" fill="white"/>
</clipPath>
</defs>
</svg>
