<svg width="24" height="24" viewBox="0 0 24 24" fill="none" xmlns="http://www.w3.org/2000/svg">
<g clip-path="url(#clip0_487_355)">
<path d="M17.2687 0.857813L14.6578 3.47344L20.5266 9.34219L23.1375 6.73125C24.1641 5.70469 24.1641 4.04531 23.1375 3.01875L20.9812 0.857813C19.9547 -0.16875 18.2953 -0.16875 17.2687 0.857813ZM13.5 4.43438L13.0687 4.56563L6.31406 6.59063C5.38125 6.87188 4.64062 7.58438 4.33125 8.5125L0.178124 20.8969C-8.9407e-07 21.4266 0.131249 22.0172 0.520312 22.4156L7.72031 15.2203C7.57969 14.925 7.5 14.5969 7.5 14.25C7.5 13.0078 8.50781 12 9.75 12C10.9922 12 12 13.0078 12 14.25C12 15.4922 10.9922 16.5 9.75 16.5C9.40312 16.5 9.075 16.4203 8.77969 16.2797L1.57969 23.4797C1.98281 23.8688 2.56875 24.0047 3.09844 23.8219L15.4875 19.6688C16.4109 19.3594 17.1281 18.6188 17.4094 17.6859L19.4344 10.9313L19.5656 10.5L13.5 4.43438Z" fill="#C9CACB"/>
</g>
<defs>
<clipPath id="clip0_487_355">
<rect width="24" height="24" fill="white"/>
</clipPath>
</defs>
</svg>
