<svg width="256" height="278" viewBox="0 0 256 278" fill="none" xmlns="http://www.w3.org/2000/svg">
<path d="M237.067 44.6967C237.067 51.7033 235.42 58.7849 231.946 65.3844C231.005 67.1629 229.968 68.8556 228.824 70.4519C222.474 62.3204 215.161 54.9816 207.058 48.5964L207.571 47.9536C207.988 47.3429 208.351 46.7001 208.683 46.0145C209.784 43.7539 210.297 41.3541 210.297 38.9971C210.297 33.0083 206.972 27.2337 201.263 24.4482C199.008 23.3447 196.624 22.8305 194.261 22.8305C188.285 22.8305 182.523 26.1731 179.743 31.8834L179.647 32.0869C171.276 28.38 162.446 25.5517 153.251 23.709C161.216 8.63507 176.728 0 192.711 0C199.703 0 206.769 1.64988 213.355 5.13176C228.418 13.1026 237.045 28.6586 237.045 44.6967H237.067Z" fill="#323334"/>
<path d="M153.262 23.709C162.456 25.5517 171.297 28.38 179.658 32.0869C189.504 36.4473 198.698 42.0076 207.058 48.5964C215.161 54.9816 222.463 62.3204 228.824 70.4519C245.854 92.2325 256 119.67 256 149.496C256 220.344 198.687 277.769 128 277.769V21.2127C136.649 21.2127 145.094 22.0698 153.262 23.709ZM204.802 85.3544C204.802 71.1911 193.342 59.6956 179.198 59.6956C165.054 59.6956 153.594 71.1804 153.594 85.3544C153.594 99.5283 165.054 111.013 179.198 111.013C193.342 111.013 204.802 99.5283 204.802 85.3544Z" fill="#E9F6FB"/>
<path d="M210.308 38.9971C210.308 41.3648 209.784 43.7539 208.694 46.0144C208.362 46.7001 207.988 47.3429 207.582 47.9536L207.069 48.5964C198.708 42.0076 189.514 36.4473 179.668 32.0869L179.764 31.8833C182.544 26.1731 188.306 22.8304 194.282 22.8304C196.645 22.8304 199.029 23.3554 201.285 24.4482C206.983 27.2337 210.319 33.0083 210.319 38.9971H210.308Z" fill="#E9F6FB"/>
<path d="M179.209 59.6956C193.342 59.6956 204.813 71.1804 204.813 85.3544C204.813 99.5283 193.352 111.013 179.209 111.013C165.065 111.013 153.604 99.5283 153.604 85.3544C153.604 71.1804 165.065 59.6956 179.209 59.6956ZM192.775 97.9427C192.775 95.6929 190.958 93.8716 188.713 93.8716C186.468 93.8716 184.65 95.6929 184.65 97.9427C184.65 100.193 186.468 102.014 188.713 102.014C190.958 102.014 192.775 100.193 192.775 97.9427Z" fill="#323334"/>
<path d="M188.809 104.414C192.245 104.414 195.031 101.622 195.031 98.1784C195.031 94.7348 192.245 91.9432 188.809 91.9432C185.372 91.9432 182.587 94.7348 182.587 98.1784C182.587 101.622 185.372 104.414 188.809 104.414Z" fill="#E9F6FB"/>
<path d="M128 187.968V277.758C57.313 277.769 0 220.334 0 149.485C0 119.67 10.1562 92.2218 27.1758 70.4412C33.5368 62.299 40.8599 54.9602 48.9742 48.5643C57.3343 41.9862 66.5284 36.4259 76.3745 32.0655C84.7453 28.3586 93.5759 25.5303 102.77 23.6983C110.927 22.0591 119.373 21.202 128 21.202V187.958V187.968ZM102.396 85.3437C102.396 71.1805 90.9353 59.6849 76.7914 59.6849C62.6476 59.6849 51.1872 71.1698 51.1872 85.3437C51.1872 99.5177 62.6476 111.003 76.7914 111.003C90.9353 111.003 102.396 99.5177 102.396 85.3437Z" fill="#323334"/>
<path d="M76.8021 59.6956C90.9353 59.6956 102.406 71.1804 102.406 85.3544C102.406 99.5283 90.946 111.013 76.8021 111.013C62.6583 111.013 51.1979 99.5283 51.1979 85.3544C51.1979 71.1804 62.6583 59.6956 76.8021 59.6956ZM91.8974 98.5213C91.8974 95.1251 89.1499 92.3717 85.7503 92.3717C82.3506 92.3717 79.6138 95.1251 79.6138 98.5213C79.6138 101.917 82.3613 104.671 85.7503 104.671C89.1392 104.671 91.8974 101.917 91.8974 98.5213Z" fill="#E9F6FB"/>
<path d="M86.4024 91.9432C89.8341 91.9432 92.6244 94.7394 92.6244 98.1784C92.6244 101.617 89.8341 104.414 86.4024 104.414C82.9707 104.414 80.1804 101.617 80.1804 98.1784C80.1804 94.7394 82.96 91.9432 86.4024 91.9432Z" fill="#E9F6FB"/>
<path d="M102.77 23.709C93.5759 25.5517 84.7453 28.38 76.3745 32.0762L76.289 31.8941C73.5094 26.1838 67.7471 22.8412 61.771 22.8412C59.4083 22.8412 57.0243 23.3661 54.7686 24.4589C49.0704 27.2444 45.7349 33.019 45.7349 39.0078C45.7349 41.3755 46.2588 43.7646 47.3492 46.0252C47.6806 46.7108 48.0548 47.3536 48.461 47.9643L48.9635 48.575C40.8492 54.9602 33.5368 62.3097 27.1651 70.4519C26.0319 68.8556 24.9949 67.1522 24.0648 65.3737C20.6545 58.8278 19.0402 51.7997 19.0402 44.8681C19.0402 28.7657 27.7531 13.1455 42.9126 5.20676C49.466 1.77844 56.4791 0.160706 63.396 0.160706C79.3358 0.160706 94.7839 8.74221 102.77 23.6982V23.709Z" fill="#E9F6FB"/>
<path d="M76.289 31.8941L76.3745 32.0762C66.5284 36.4259 57.3343 41.9862 48.9742 48.575L48.4717 47.9643C48.0655 47.3537 47.6913 46.7108 47.3599 46.0252C46.2587 43.7646 45.7456 41.3755 45.7456 39.0078C45.7456 33.0297 49.0811 27.2444 54.7793 24.4589C57.035 23.3554 59.419 22.8412 61.7817 22.8412C67.7578 22.8412 73.5201 26.1838 76.2997 31.8941H76.289Z" fill="#323334"/>
<path d="M128 187.968L51.1979 162.32" stroke="#E9F6FB" stroke-width="4.66" stroke-miterlimit="10" stroke-linecap="round"/>
<path d="M204.802 213.627L128 187.968" stroke="#323334" stroke-width="4.66" stroke-miterlimit="10" stroke-linecap="round"/>
<path d="M128 187.968L51.1979 213.627" stroke="#E9F6FB" stroke-width="4.66" stroke-miterlimit="10" stroke-linecap="round"/>
<path d="M204.802 162.32L128 187.968" stroke="#323334" stroke-width="4.66" stroke-miterlimit="10" stroke-linecap="round"/>
<path fill-rule="evenodd" clip-rule="evenodd" d="M231.946 65.7217C235.42 59.1362 237.067 52.0697 237.067 45.0779H237.045C237.045 29.0739 228.418 13.551 213.355 5.59711C206.769 2.12263 199.703 0.476257 192.711 0.476257C176.729 0.476257 161.217 9.09224 153.253 24.1329C145.088 22.4985 136.645 21.6439 128 21.6439L128 21.6332C119.373 21.6332 110.927 22.4885 102.77 24.1241C94.7839 9.19989 79.3358 0.636618 63.396 0.636618C56.4791 0.636618 49.466 2.25092 42.9126 5.67195C27.7531 13.5938 19.0402 29.1808 19.0402 45.249C19.0402 52.1659 20.6545 59.179 24.0648 65.711C24.9949 67.4857 26.0319 69.1855 27.1651 70.7784C27.6649 70.1411 28.1705 69.5087 28.6817 68.8812C28.174 69.5051 27.672 70.134 27.1758 70.7677C10.1562 92.502 0 119.892 0 149.644C0 220.342 57.313 277.655 128 277.644L128 277.655C198.687 277.655 256 220.352 256 149.655C256 119.892 245.854 92.5127 228.824 70.7784C229.968 69.1855 231.005 67.4964 231.946 65.7217ZM228.824 70.7784C222.474 62.6642 215.161 55.341 207.058 48.9694C215.161 55.341 222.463 62.6642 228.824 70.7784ZM207.058 48.9694C198.698 42.3946 189.504 36.8461 179.658 32.495L179.649 32.491L179.743 32.2918C182.523 26.5937 188.285 23.2582 194.261 23.2582L194.272 23.2582C188.299 23.2621 182.542 26.597 179.764 32.2918L179.668 32.495C189.512 36.8449 198.704 42.3917 207.062 48.9642L207.058 48.9694ZM48.9688 48.9415L48.4717 48.3386C48.0655 47.7292 47.6913 47.0878 47.3599 46.4036C46.2587 44.1478 45.7456 41.7638 45.7456 39.4012C45.7456 33.4357 49.0811 27.6628 54.7793 24.8832C55.2183 24.6689 55.6621 24.4768 56.1098 24.3065C55.6585 24.4771 55.2111 24.6693 54.7686 24.8832C49.0704 27.6628 45.7349 33.4251 45.7349 39.4012C45.7349 41.7638 46.2587 44.1478 47.3492 46.4036C47.6806 47.0878 48.0548 47.7292 48.461 48.3386L48.9624 48.9466L48.9688 48.9415ZM60.4984 23.3197C60.9263 23.2857 61.3543 23.2689 61.7817 23.2689C67.7578 23.2689 73.5201 26.6044 76.2997 32.3025L76.289 32.3025L60.4984 23.3197ZM179.209 111.253C165.065 111.253 153.604 99.793 153.604 85.6492C153.604 71.5106 165.056 60.0534 179.193 60.045C165.051 60.0477 153.594 71.5071 153.594 85.6492C153.594 99.793 165.054 111.254 179.198 111.254L179.209 111.253ZM76.7914 60.0343C83.8616 60.0343 90.2612 62.9006 94.8941 67.533C90.2604 62.9059 83.8635 60.0449 76.8021 60.0449C62.6583 60.0449 51.1979 71.5054 51.1979 85.6492C51.1979 92.7219 54.0636 99.1235 58.6975 103.757C54.0573 99.1227 51.1872 92.7166 51.1872 85.6385C51.1872 71.4947 62.6476 60.0343 76.7914 60.0343ZM88.2992 104.373C87.701 104.564 87.0636 104.668 86.4024 104.668C82.9707 104.668 80.1804 101.878 80.1804 98.446C80.1804 96.438 81.1321 94.6497 82.6113 93.5114C80.8137 94.5815 79.6138 96.5442 79.6138 98.7881C79.6138 102.177 82.3613 104.925 85.7503 104.925C86.6589 104.925 87.5222 104.727 88.2992 104.373Z" fill="url(#paint0_linear_378_813)" fill-opacity="0.5" style="mix-blend-mode:multiply"/>
<defs>
<linearGradient id="paint0_linear_378_813" x1="128" y1="0.476257" x2="128" y2="277.655" gradientUnits="userSpaceOnUse">
<stop stop-color="#0F465C"/>
<stop offset="1" stop-color="#0F465C" stop-opacity="0"/>
</linearGradient>
</defs>
</svg>
