<?xml version="1.0" encoding="UTF-8"?>
<svg id="Layer_2" data-name="Layer 2" xmlns="http://www.w3.org/2000/svg" viewBox="0 0 740.37 799.53">
  <defs>
    <style>
      .cls-1, .cls-2, .cls-3, .cls-4 {
        fill: none;
        stroke-miterlimit: 10;
        stroke-width: 20px;
      }

      .cls-1, .cls-3 {
        stroke: #000;
      }

      .cls-2, .cls-4 {
        stroke: #a5daf0;
      }

      .cls-5 {
        fill: #000;
      }

      .cls-5, .cls-6 {
        stroke-width: 0px;
      }

      .cls-3, .cls-4 {
        stroke-linecap: round;
      }

      .cls-6 {
        fill: #a5daf0;
      }
    </style>
  </defs>
  <g id="Layer_1-2" data-name="Layer 1">
    <path class="cls-1" d="M677.09,135.43c0,19.65-4.62,39.55-14.39,58.05-2.64,5-5.57,9.74-8.77,14.23-17.87-22.81-38.43-43.41-61.21-61.33l1.44-1.81c1.16-1.72,2.2-3.53,3.13-5.44,3.09-6.34,4.55-13.07,4.55-19.7,0-16.8-9.36-33-25.4-40.82-6.34-3.09-13.06-4.55-19.7-4.55-16.8,0-33.01,9.37-40.83,25.41l-.26.58c-23.53-10.39-48.38-18.34-74.24-23.51,22.39-42.31,66.02-66.54,110.99-66.54,19.65,0,39.55,4.63,58.05,14.39,42.37,22.37,66.64,66.03,66.64,111.04Z"/>
    <path class="cls-2" d="M299.03,76.53c-25.85,5.16-50.7,13.1-74.23,23.49l-.23-.52c-7.82-16.04-24.03-25.41-40.83-25.41-6.63,0-13.36,1.46-19.69,4.55-16.04,7.82-25.41,24.03-25.41,40.82,0,6.64,1.46,13.36,4.55,19.7.93,1.91,1.98,3.72,3.13,5.44l1.42,1.71c-22.81,17.93-43.4,38.55-61.3,61.39-3.18-4.49-6.09-9.25-8.71-14.26-9.59-18.36-14.13-38.08-14.13-57.55,0-45.2,24.49-89.04,67.14-111.3,18.37-9.59,38.09-14.13,57.56-14.13,44.83,0,88.29,24.08,110.73,66.07Z"/>
    <path class="cls-1" d="M514.37,177.53c39.76,0,72,32.24,72,72s-32.24,72-72,72-72-32.24-72-72,32.24-72,72-72Z"/>
    <path class="cls-2" d="M226,177.53c39.76,0,72,32.24,72,72s-32.24,72-72,72-72-32.24-72-72,32.24-72,72-72Z"/>
    <line class="cls-4" x1="370" y1="537.53" x2="154" y2="465.53"/>
    <line class="cls-3" x1="586.37" y1="609.53" x2="370.37" y2="537.53"/>
    <line class="cls-4" x1="370" y1="537.53" x2="154" y2="609.53"/>
    <line class="cls-3" x1="586.37" y1="465.53" x2="370.37" y2="537.53"/>
    <path class="cls-2" d="M224.57,99.5l.23.52c-27.69,12.21-53.55,27.82-77.06,46.29l-1.42-1.71c-1.15-1.72-2.2-3.53-3.13-5.44-3.09-6.34-4.55-13.06-4.55-19.7,0-16.79,9.37-33,25.41-40.82,6.33-3.09,13.06-4.55,19.69-4.55,16.8,0,33.01,9.37,40.83,25.41Z"/>
    <path class="cls-1" d="M601.84,118.43c0,6.63-1.46,13.36-4.55,19.7-.93,1.91-1.97,3.72-3.13,5.44l-1.44,1.81c-23.51-18.48-49.37-34.1-77.07-46.33l.26-.58c7.82-16.04,24.03-25.41,40.83-25.41,6.64,0,13.36,1.46,19.7,4.55,16.04,7.82,25.4,24.02,25.4,40.82Z"/>
    <path class="cls-5" d="M390.37,90.11c15.88.92,31.66,2.94,47.12,6.04,24.03,4.8,47.61,12.27,70.08,22.19,25.92,11.44,50.41,26.17,72.78,43.75,21.51,16.92,40.96,36.41,57.83,57.94,22.93,29.27,40.78,61.83,53.05,96.75,12.69,36.13,19.13,74.06,19.13,112.74,0,45.91-8.99,90.43-26.71,132.34-17.12,40.48-41.64,76.85-72.87,108.08-31.23,31.23-67.59,55.75-108.08,72.87-35.79,15.14-73.49,23.9-112.34,26.14V90.11M370.37,69.53v720c198.82,0,360-161.18,360-360,0-83.68-28.55-160.69-76.44-221.82-17.87-22.81-38.43-43.41-61.21-61.33-23.51-18.48-49.37-34.1-77.07-46.33-23.53-10.39-48.38-18.34-74.24-23.51-22.96-4.6-46.72-7.01-71.04-7.01h0Z"/>
    <path class="cls-6" d="M350,90.11v678.84c-38.84-2.23-76.54-11-112.34-26.14-40.48-17.12-76.85-41.64-108.08-72.87-31.23-31.23-55.75-67.59-72.87-108.08-17.72-41.9-26.71-86.43-26.71-132.34,0-38.67,6.44-76.6,19.13-112.74,12.27-34.93,30.12-67.48,53.05-96.75,16.9-21.56,36.38-41.08,57.91-58,22.38-17.59,46.87-32.29,72.78-43.72,22.45-9.91,46.03-17.37,70.08-22.17,15.44-3.09,31.2-5.11,47.05-6.03M370,69.53c-24.29,0-48.03,2.41-70.97,7-25.85,5.16-50.7,13.1-74.23,23.49-27.69,12.21-53.55,27.82-77.06,46.29-22.81,17.93-43.4,38.55-61.3,61.39C38.56,268.83,10,345.85,10,429.53c0,198.82,161.18,360,360,360V69.53h0Z"/>
  </g>
</svg>