<?xml version="1.0" encoding="UTF-8"?>
<svg id="Layer_2" data-name="Layer 2" xmlns="http://www.w3.org/2000/svg" viewBox="0 0 439.93 189.83">
  <defs>
    <style>
      .cls-1 {
        fill: #a6d9ef;
        stroke-width: 0px;
      }
    </style>
  </defs>
  <g id="Layer_1-2" data-name="Layer 1">
    <g>
      <g>
        <path class="cls-1" d="M353.04,87.38c.05,1.25.05,2.52.05,3.79,0,49.19-26.59,77.8-75.7,79.22,0,.02.02.07.02.1h65.07c3.25-2.3,6.23-4.81,8.94-7.53,17.23-16.93,26.61-41.39,26.88-71.3-7.53-2.32-15.96-3.76-25.27-4.28Z"/>
        <path class="cls-1" d="M413.95,88.45c-9.9-8.36-22.46-14.39-37.21-17.89-3.35-20.18-12.02-35.6-24.78-47.28C335.61,8.04,310.96,0,276.31,0c-19.11,0-36.55,1.66-51.26,3.89v183.73c10.12,1.15,21.75,1.93,35.21,2.15,2.79.05,5.64.07,8.58.07h168.94c1.34-9.77,2.15-21.36,2.15-35.14,0-29.1-9.11-52.24-25.97-66.24ZM419.84,170.48h-142.43s-.02-.07-.02-.1c-1.25.02-2.54.05-3.84.05-5.69,0-11.22-.1-16-.44-3.15-.22-5.96-.54-8.38-.95V21.62c6.38-1.39,15.81-2.49,28.27-2.49,40.93,0,65.07,18.03,72.84,47.92,1.66,6.28,2.57,13.07,2.76,20.33,9.31.51,17.74,1.95,25.27,4.28,27.66,8.45,42.88,28.69,42.88,59.28,0,7.55-.27,14.66-1.34,19.55Z"/>
      </g>
      <g>
        <path class="cls-1" d="M86.84,91.17c0-1.27,0-2.54.05-3.79-9.31.51-17.76,1.95-25.27,4.28.27,29.91,9.65,54.37,26.88,71.3,2.71,2.71,5.69,5.23,8.92,7.53h65.09s.02-.07.02-.1c-49.11-1.42-75.7-30.03-75.7-79.22Z"/>
        <path class="cls-1" d="M163.59,0c-34.62,0-59.3,8.04-75.65,23.29-12.73,11.68-21.4,27.1-24.75,47.28-14.78,3.49-27.34,9.53-37.24,17.89C9.09,102.46,0,125.6,0,154.7c0,13.78.78,25.36,2.13,35.14h168.94c2.96,0,5.82-.02,8.6-.07,13.49-.22,25.09-1,35.19-2.15V3.89c-14.69-2.22-32.13-3.89-51.26-3.89ZM190.76,169.04c-2.42.42-5.25.73-8.38.95-4.81.34-10.31.44-16,.44-1.3,0-2.59-.02-3.84-.05,0,.02-.02.07-.02.1H20.09c-1.08-4.89-1.34-12-1.34-19.55,0-30.59,15.22-50.82,42.88-59.28,7.5-2.32,15.96-3.76,25.27-4.28.2-7.26,1.1-14.05,2.76-20.33,7.77-29.88,31.91-47.92,72.84-47.92,12.46,0,21.89,1.1,28.27,2.49v147.42Z"/>
      </g>
    </g>
  </g>
</svg>