<?xml version="1.0" encoding="UTF-8"?>
<svg id="Layer_2" data-name="Layer 2" xmlns="http://www.w3.org/2000/svg" viewBox="0 0 114.96 107.82">
  <defs>
    <style>
      .cls-1 {
        fill: #d4a635;
      }

      .cls-1, .cls-2 {
        stroke-width: 0px;
      }

      .cls-2 {
        fill: #80592e;
      }
    </style>
  </defs>
  <g id="Layer_1-2" data-name="Layer 1">
    <g>
      <path class="cls-1" d="M26.36,17.79c.65-1.53,2.09-4.81,5.63-8.95,15.76-18.43,32.53-3.64,32.63,4.8,1.15,9.93-8.89,35.9,3.38,37.03,8.35.77,16.12-6.3,30.91-6.19,11.22.09,18.14,7.33,15.47,16.02-.53,1.73-1.45,3.3-2.56,4.66-6.62,8.13-16.44,14.32-24.9,15.88-.55.1-1.13.13-1.68-.01-4.02-1,2.33-13.62,2.18-19.8-.11-4.49-3.75-7.88-7.77-7.21-6.86,1.15-20.44,4.51-23.24.17-5.85-8.92-.21-19.81-5.83-32.23-.79-1.74-1.87-3.29-3.21-4.56-4.68-4.41-10.53-4.11-15.32-1.89-2.49,1.16-3.85,3.17-4.66,3.34-.84.15-1.22-.66-1.06-1.06Z"/>
      <path class="cls-2" d="M.05,30.62c.79-1.87,2.54-5.86,6.87-10.91,19.21-22.46,39.64-4.43,39.77,5.85,1.4,12.1-10.84,43.75,4.12,45.13,10.18.94,19.64-7.68,37.67-7.54,13.67.1,22.11,8.93,18.85,19.53-.65,2.11-1.76,4.02-3.12,5.68-8.07,9.9-20.04,17.45-30.34,19.36-.68.13-1.38.15-2.04-.01-4.9-1.22,2.84-16.6,2.66-24.14-.13-5.47-4.57-9.6-9.47-8.78-8.36,1.4-24.91,5.49-28.32.2-7.13-10.88-.25-24.14-7.1-39.28-.96-2.12-2.28-4.01-3.92-5.56-5.7-5.37-12.84-5.01-18.66-2.3-3.04,1.41-4.69,3.86-5.68,4.06-1.02.18-1.49-.81-1.29-1.29Z"/>
    </g>
  </g>
</svg>