<?xml version="1.0" encoding="UTF-8"?>
<svg id="Layer_2" data-name="Layer 2" xmlns="http://www.w3.org/2000/svg" viewBox="0 0 359.39 360">
  <defs>
    <style>
      .cls-1 {
        fill: none;
      }

      .cls-1, .cls-2, .cls-3 {
        stroke-width: 0px;
      }

      .cls-2 {
        fill: #000;
      }

      .cls-3 {
        fill: #fff;
      }
    </style>
  </defs>
  <g id="Layer_1-2" data-name="Layer 1">
    <path class="cls-2" d="M202.69,17.58l1.25,21.04,20.74-16.01c-1.56-3.63-3.59-6.46-6.3-8.16-.99-.82-1.88-3.28-2.5-9.73-1.25-2.99-4.37-4.03-7.85-4.71-2.87,4.7-4.44,10.79-5.35,17.58Z"/>
    <path class="cls-3" d="M101.58,314.45v11.13s27.36,13.31,27.36,13.31l.05.02,8.78,2.32c2.95.78,6.04.87,9.02.25l9.63-1.98c3.32-.68,6.77-.05,9.63,1.77l5.11,3.25c3.19,2.03,7.07,2.64,10.73,1.69l4.43-1.15c1.65-.43,3.41-.52,5.04,0,2.3.72,4.46,2.41,6.25,6.62,8.89,2.9,16.87,2.98,23.54-1.01l-2.26-2.55-6.47-13.39-15.32-11.01-2.16-7.11-7.13-13.61-2.8-15.32,4.54-15.32,10.15-12.95,12.73,8.85,5.84,11.01,1.27,6.69,7.36,5.61,14-2.16.34-1.08,1.05-1.99,15.08-9.07,12.16-1.45,13.04-4.36,16.5-6.64,20.57,2.01,13.61,9.86,5.79,17.38-3.6,11.3-18.83,27.12,1.08,1.13h11.39c2.5,0,4.87-1.08,6.5-2.97l6.08-7.02c1.08-1.25,1.91-2.71,2.43-4.28l.8-2.42,4.37-14.01c.6-1.94,1.06-3.92,1.37-5.92,2.68-17.37,4.93-29.14,6.4-31.07l.69-1.4c.29-.58.45-1.21.49-1.85l1.05-18.96c.18-3.18.16-6.37-.04-9.55l-.81-12.55c-.17-2.61-.61-5.2-1.32-7.71l-3.96-14.06-3.65-10.08.86,15.67-9.27,13.9-11.87,15.91-14.78,13.63-24.59,14.76-13.17,6.64h-16.43s-19.05-7.8-19.05-7.8l-45.19-39.96-4.58-.91-10.44,20.1-6.06,17.7-6.62,7.09-12.68,6.91-8.65,12.95-9.91,17.94-35.48,10.13Z"/>
    <path class="cls-3" d="M209.14,131.42l5.91,4.95-8.26,10.05-8.26,14.51-7.11,11.96,11.36,3.01,3.13,2.97,17.13,1.55,29.16-1.2-.02-.02c4.94-7.89,2.77-11.09-6.55-9.56,11.91-7.61,12.76-14.16,3.04-19.69l-5.47-8.12,8.97-8.92,9.27-2.01,4.88-4.07,11.96-3.04,7.5-9.12,6.5,1.01,5.69,3.9,4.21-3.41,17.01-.86,10.63,4.27-5.85-14.86c-.84-2.13-1.93-4.15-3.26-6.02l-3.94-5.55c-.91-1.29-1.73-2.64-2.43-4.05l-4.73-9.45c-1.46-2.92-2.22-6.14-2.22-9.41h0c0-2.16-.44-4.29-1.31-6.27l-8.06-18.5c1.4-17.2-3.67-15.7-13.46-.51,2.36-4.94,3.81-8.72,1.94-8.24-2.7-.64-4.36.5-4.12,4.9-2.1-5.66-5.18-5.98-9.41,0,.5-2.88.04-4.79-1.79-5.32,5.89-2.57,7.4-6.25,6.72-10.49l-19.12-5.66c-2.2-.65-4.47-1.02-6.76-1.09l-10.12-.33c-3.28-.11-6.56.37-9.68,1.4l-2.05.68c-3.62,1.21-7.02,3.01-10.04,5.35l-12.08,9.32c-2.71,2.09-5.05,4.62-6.93,7.49l-2.56,3.91c-1.21,1.84-2.24,3.79-3.08,5.83l-4.32,10.4c-.88,2.12-1.57,4.32-2.07,6.57l-.82,3.75c-.43,1.94-.56,3.93-.41,5.91l1.45,18.59c.13,1.72.51,3.42,1.11,5.04l2.02,5.45c.76,2.06,1.7,4.04,2.81,5.94l4.47,7.65,9.44,9.44Z"/>
    <path class="cls-3" d="M210.22,70.71l-.74,11.35c-5.64,1.13-7.78,3.89-6.25,8.39l-.91,5.12h-2.92s-2.5-6.72-2.5-6.72l1.47-11.7h3.26s4.63-8.63,4.63-8.63l3.95,2.18Z"/>
    <polygon class="cls-3" points="234.32 81.4 237.46 73.28 245.23 71.45 252.61 82.53 256.88 89.54 252.61 101.16 245.6 101.16 237.46 90.28 234.32 81.4"/>
    <polygon class="cls-3" points="211.05 120.02 203.94 113.64 201.64 109.11 203.94 104.32 214.31 104.32 225.84 109.11 225.84 113.64 216.23 120.02 211.05 120.02"/>
    <line class="cls-1" x1="252.19" y1="179.23" x2="276.66" y2="182.78"/>
    <path class="cls-1" d="M157.59,225.23l-3.56,13.4-14.13,13.13-5.36,7.66,9.92,10.87,3.22,10.15h-13.72c-3,0-5.11,2.95-4.14,5.79l2.05,6h-3.98c-1.21,0-2.19.98-2.19,2.19h0c0,2.02-.86,3.95-2.36,5.3l-12.58,11.34c-.91.82-2.1,1.28-3.33,1.28h-3.5c-1.2,0-2.38-.32-3.42-.92l-6.19-3.59c-1.49-.86-2.41-2.45-2.41-4.17v-21.29c0-2.69.5-5.35,1.49-7.86l1.31-3.35"/>
    <line class="cls-1" x1="252.19" y1="179.23" x2="254.74" y2="182.78"/>
    <path class="cls-2" d="M234.32,81.4c.21,2.63,1.26,5.59,3.14,8.88,1.98,3.68,4.84,7.3,8.14,10.89,2.2.69,4.54.67,7.01,0,4.54-6.89,4.62-9.47,4.27-11.62-.13-3.09-.85-5.83-4.27-7.01-2.13-5.45-4.65-8.84-7.38-11.08l-7.77,1.84c-1.63.14-2.8,2.31-3.14,8.12Z"/>
    <path class="cls-2" d="M196.91,88.85c.59,2.61,1.39,4.91,2.5,6.72.72.81,1.78.52,2.92,0l.91-5.12c1.41-3.13,3.21-6.08,6.25-8.39,1.49-2.24,2.07-5.6.74-11.35-1.16-1.14-2.46-1.92-3.95-2.18-2.34,1.32-3.78,4.4-4.63,8.63h-3.26c-1.88,4.1-2.68,8.04-1.47,11.7Z"/>
    <path class="cls-2" d="M271.17,36.29c-.04,2.05.59,3.81,1.79,5.32,3.82-1.2,7.53-2.19,9.41,0,.92-2.15,2.44-3.61,4.12-4.9-1.26,2.86-1.95,5.62-1.94,8.24,9.31-11.32,12.93-9.07,13.46.51,2.91.38,5.57-.02,7.99-1.15.86-1.38.46-3.2,0-5.03,2.45-7.67,1.31-17.41-1.13-27.9-3.24-3.38-7.43-5.69-14.88-4.34-4.51,6.1-7.6,11.78-7.31,16.48-1.55.12-3.16,1.01-4.81,2.28-3.33,3.11-6.25,6.37-6.72,10.49Z"/>
    <path class="cls-2" d="M202.23,110.26l1.38,2.71c.22.44.53.84.9,1.17l5.5,4.94c.67.6,1.55.94,2.45.94h2.9c.57,0,1.12-.17,1.59-.48l8.05-5.34c.53-.35.84-.94.84-1.57v-2.58c0-.57-.35-1.09-.88-1.31l-9.77-4.06c-.58-.24-1.19-.36-1.82-.36h-9.43s-1.74,3.61-1.74,3.61c-.36.74-.35,1.6.02,2.33Z"/>
    <path class="cls-3" d="M205.89,148c.53-.94,1.12-1.83,1.8-2.67l-.9,1.09-.9,1.58Z"/>
    <line class="cls-1" x1="252.19" y1="179.23" x2="276.66" y2="182.78"/>
    <path class="cls-1" d="M157.59,225.23l-3.57,13.4-14.13,13.13-5.36,7.66,9.92,10.87,3.21,10.15h-13.71c-3,0-5.12,2.95-4.14,5.79l2.05,6h-3.98c-1.21,0-2.19.98-2.19,2.19,0,1.01-.21,2-.62,2.9-.4.9-.99,1.72-1.73,2.4l-12.58,11.34c-.91.82-2.1,1.28-3.33,1.28h-3.49c-1.2,0-2.38-.32-3.42-.92l-6.2-3.59c-1.48-.86-2.4-2.45-2.4-4.17v-21.29c0-2.69.51-5.36,1.48-7.86l1.31-3.34"/>
    <line class="cls-1" x1="252.19" y1="179.23" x2="254.74" y2="182.78"/>
    <path class="cls-3" d="M218.42,347.15c.32.66.73,1.27,1.22,1.82l-.74-.84-.47-.98Z"/>
    <path class="cls-3" d="M215.35,120.02c.57,0,1.12-.17,1.6-.48l-.72.48h-.87Z"/>
    <path class="cls-3" d="M205.89,148l.9-1.58.9-1.09c-.67.84-1.27,1.73-1.8,2.67Z"/>
    <path class="cls-3" d="M203.63,113.03c.22.41.51.79.86,1.1l-.55-.49-.31-.61Z"/>
    <path class="cls-2" d="M205.89,148c.53-.94,1.12-1.83,1.8-2.67l-.9,1.09-.9,1.58Z"/>
    <path class="cls-2" d="M0,284.68v18.58c0,.66.1,1.32.25,1.99l1.35,5.1c.5,1.9,1.64,3.57,3.22,4.72l2.87,2.1c1.02.75,2.18,1.29,3.41,1.58l4.85,1.18c.66.17,1.35.29,2.01.42l34.86,5.98c.81.12,1.62.2,2.4.2h2.4c3.57,0,7.09.89,10.23,2.59l7.67,4.15c5.34,2.87,11.38,4.14,17.41,3.68l18.24-1.37c2.67-.22,5.37.02,7.97.71l9.78,2.6,3.49-12.79c-2.72-1.35-4.46-4.12-4.46-7.13,0-1.74.69-3.33,1.79-4.51,1.1-1.2,2.62-1.99,4.36-2.11l2.45-.35c4.44-.32,7.99-3.75,8.48-8.16l1.15-10.49c.49-4.56,2.11-8.97,4.66-12.8l1.67-2.5c2.04-3.02,4.76-5.52,7.97-7.28l6.08-3.31c1.13-.62,2.16-1.41,3.04-2.35l2.51-2.68c1.84-1.96,3.24-4.32,4.12-6.87l3.58-10.42c.76-2.28,1.72-4.49,2.82-6.6l8.78-16.92.77.15c2.5.49,4.82,1.64,6.73,3.33l40.61,35.92c1.1.97,2.36,1.76,3.72,2.31l14.76,6.04c1.48.6,3.06.92,4.65.92h6.78c4.76,0,9.45-1.12,13.69-3.26l5.42-2.73c.86-.43,1.71-.9,2.53-1.4l19.21-11.53c2.75-1.65,5.33-3.58,7.69-5.75l7.44-6.86c2.52-2.33,4.83-4.88,6.88-7.63l8.78-11.78,6.46-9.69c1.82-2.73,2.71-5.98,2.53-9.26l-.37-6.84c-.14-2.51-.53-5-1.16-7.43l-10.35-39.56c-.24-.92-.45-1.85-.63-2.78l-2.76-14.35c-.41-2.13-1.23-4.16-2.42-5.97l-1.24-1.89c-.86-1.31-2-2.4-3.35-3.21l-4.7-2.8c-2.09-1.25-4.52-1.81-6.94-1.62l-11.73.91c-1.78.14-3.42,1-4.54,2.39l-1.89,2.34-3.29-2.26c-1.58-1.08-3.38-1.79-5.27-2.09l-3.63-.56-3.82,4.64c-2.39,2.91-5.66,4.98-9.31,5.91l-3.3.84c-2,.51-3.87,1.46-5.45,2.78h0c-1.62,1.35-3.55,2.29-5.61,2.74l-2.85.62c-2.14.46-4.1,1.53-5.65,3.07l-6.6,6.56,5.47,8.12c2.46,6.53,2.58,13.08-3.04,19.69,3.55,1.33,5.97,4.2,6.55,9.56l.02.02-20.06-2.92c-5.99-.87-12.09-.63-18,.71l-8.23,1.87v-2.02c0-2.98-2.27-5.55-5.24-5.74-2.87-.19-6.01.6-9.25,1.78l7.11-11.96,7.33-12.87c.61-1.1,1.32-2.13,2.13-3.11l7.06-8.58-5.06-4.24c-.56-.47-1.11-.97-1.63-1.49l-6.11-6.11c-1.69-1.69-3.16-3.59-4.36-5.65l-4.31-7.39-2.33,1.47c-2.4,1.52-4.44,3.53-5.98,5.88l-10.03,15.25c-1.79,2.72-3.14,5.69-4,8.83l-3.26,11.74c-1.13,4.02-3.31,7.67-6.35,10.54l-8.24,7.85,5.03,4.71-26.7,32.68-11.28,15.03c-.66.86-1.27,1.77-1.84,2.67l-6.08,9.87c-.28.49-.75,1.3-1.03,1.8l-16.77,31.36-13.12,9-17.48,2.13-6.62,6.62-13.26,2.38-10.86-10.08-22.56-5.84c-4-1.03-8.12,1.2-9.44,5.15L0,284.68Z"/>
    <path class="cls-2" d="M186.45,295.6l.62,3.42c.48,2.65,1.37,5.22,2.62,7.6l4.49,8.56c.5.96.92,1.97,1.23,3h0c1.09,3.6,3.34,6.74,6.4,8.93l7.64,5.49c1.95,1.4,3.53,3.27,4.57,5.44l4.38,9.07c.33.68.74,1.3,1.24,1.87l1.51,1.7h0c1.78,2.02,3.96,3.65,6.41,4.77l4.39,2.02c3.63,1.67,7.58,2.53,11.57,2.53h24.97c5.02,0,9.98-1.05,14.58-3.07l15.55-6.86c5.45-2.4,10.13-6.26,13.54-11.15l4.46-6.4,17.34-24.97c.99-1.42,1.76-2.99,2.29-4.64l.87-2.72c1.26-3.96,1.24-8.22-.08-12.16l-1.93-5.81c-1.19-3.58-3.48-6.7-6.54-8.92l-6.52-4.72c-1.56-1.13-3.4-1.83-5.31-2.01l-12.59-1.23c-3.32-.32-6.67.16-9.76,1.4l-10.77,4.34c-.68.27-1.36.53-2.06.76l-10.08,3.37c-1.28.43-2.6.73-3.95.89l-5.83.69c-2.85.34-5.59,1.28-8.04,2.75l-11.35,6.83-1.05,1.99-.34,1.08-14,2.16-7.36-5.61-1.27-6.69-5.84-11.01-8.44-5.87c-2.4-1.67-5.69-1.18-7.5,1.13l-3.03,3.87c-2.58,3.29-4.51,7.03-5.7,11.04l-.46,1.56c-1.5,5.06-1.79,10.41-.84,15.6Z"/>
  </g>
</svg>