<svg width="413" height="161" viewBox="0 0 413 161" fill="#853119" xmlns="http://www.w3.org/2000/svg">
<g clip-path="url(#clip0_157_6469)">
<path d="M197.473 3.60919L197.556 0.282745H211.158L211.241 3.60919H210.776C210.295 1.11436 209.747 0.598758 207.621 0.698551H205.395V10.6779C205.395 13.5885 205.528 13.838 207.189 13.8547H207.87V14.337H200.878V13.8547H201.592C203.253 13.8547 203.419 13.5885 203.386 10.6779V0.698551H201.293C199.001 0.598758 198.503 1.0312 197.971 3.60919H197.473Z" fill="#853119"/>
<path d="M215.361 7.16849C215.694 6.65748 216.15 6.23782 216.687 5.94743C217.223 5.65704 217.823 5.50508 218.433 5.50527C218.909 5.46853 219.387 5.55476 219.82 5.75569C220.253 5.95663 220.628 6.26555 220.908 6.6529C221.251 7.41908 221.377 8.26473 221.273 9.09784V11.4263C221.273 13.705 221.273 13.838 222.552 13.8547H222.718V14.337H218.334V13.8547H218.516C219.762 13.8547 219.812 13.7382 219.795 11.4263V8.88161C219.879 8.18736 219.764 7.48344 219.463 6.85248C219.286 6.61695 219.055 6.42853 218.788 6.30381C218.522 6.1791 218.229 6.12191 217.935 6.13729C217.373 6.17758 216.834 6.37514 216.379 6.70744C215.924 7.03973 215.571 7.4934 215.361 8.01674V11.3432C215.361 13.6218 215.361 13.7549 216.623 13.7715V14.2538H212.321V13.7715H212.521C213.152 13.7715 213.451 13.6717 213.633 13.3723C213.816 13.0729 213.766 13.0729 213.766 12.6738C213.779 12.4522 213.779 12.2301 213.766 12.0085V2.87737C213.766 1.21415 213.584 0.914769 212.504 0.914769H212.355V0.432433C213.275 0.423225 214.188 0.271755 215.062 -0.0166321H215.361V7.16849Z" fill="#853119"/>
<path d="M225.774 8.66541C225.755 9.00887 225.755 9.35314 225.774 9.69661C225.697 10.8466 225.933 11.9961 226.455 13.0231C226.681 13.3715 226.991 13.6566 227.357 13.8516C227.723 14.0466 228.133 14.1449 228.548 14.1374C229.109 14.1619 229.664 14.0162 230.141 13.7195C230.618 13.4227 230.995 12.9887 231.222 12.4742H231.72C231.455 13.1657 230.977 13.7553 230.357 14.1587C229.736 14.562 229.004 14.7583 228.265 14.7195C227.116 14.6325 226.041 14.1164 225.253 13.2733C224.465 12.4303 224.022 11.3218 224.012 10.1672C224.001 9.01273 224.424 7.89637 225.197 7.03917C225.969 6.18197 227.035 5.64643 228.182 5.53855C228.628 5.5093 229.075 5.57038 229.497 5.71816C229.918 5.86593 230.306 6.09736 230.636 6.39859C230.967 6.69982 231.233 7.06467 231.419 7.47131C231.605 7.87795 231.708 8.31802 231.72 8.7652L225.774 8.66541ZM229.86 8.2496C229.875 8.10028 229.875 7.94985 229.86 7.80052C229.879 7.55161 229.845 7.30155 229.761 7.06655C229.677 6.83154 229.544 6.61688 229.372 6.43649C229.2 6.25611 228.991 6.11403 228.761 6.01951C228.53 5.92498 228.282 5.88012 228.033 5.88783C227.676 5.88391 227.325 5.96844 227.009 6.13386C226.693 6.29929 226.423 6.54047 226.223 6.83586C225.956 7.26168 225.802 7.74801 225.774 8.2496H229.86Z" fill="#853119"/>
<path d="M154.574 54.1046H156.634C159.025 65.9468 164.772 72.0342 173.69 72.0342C180.882 72.0342 186.28 67.3106 186.28 60.8739C186.258 59.2177 185.853 57.589 185.095 56.1168C184.336 54.6446 183.247 53.3692 181.912 52.3915C179.769 50.7283 178.324 49.8967 170.767 46.6368C164.855 44.1419 161.267 41.9964 159.142 39.6845C156.524 36.7543 155.06 32.971 155.023 29.0399C155.023 20.7237 161.45 14.786 170.186 14.786C175.584 14.786 179.188 16.4493 183.473 20.8901C184.682 19.478 185.455 17.7445 185.698 15.9004H187.509V30.8694H185.698C183.39 22.0377 177.809 16.7985 170.452 16.7985C164.705 16.7985 160.67 20.4077 160.67 25.6303C160.708 27.0871 161.077 28.5162 161.747 29.8098C162.417 31.1034 163.372 32.2277 164.539 33.0981C166.416 34.7614 168.824 36.1086 174.305 38.5202C183.124 42.4621 185.366 43.6596 187.592 45.8051C189.186 47.3104 190.446 49.136 191.287 51.1624C192.129 53.1888 192.533 55.3703 192.474 57.5641C192.474 67.4437 185.266 74.1964 174.554 74.1964C171.569 74.2486 168.61 73.6286 165.897 72.3821C163.183 71.1355 160.784 69.2944 158.876 66.9946C157.818 68.7005 157.091 70.5908 156.733 72.5664H154.574V54.1046Z" fill="#853119"/>
<path d="M208.999 37.1065C209.535 38.9487 209.798 40.8595 209.78 42.7781C211.334 41.0308 213.233 39.6248 215.357 38.6487C217.481 37.6726 219.784 37.1475 222.12 37.1065C231.886 37.1065 238.828 44.6575 238.828 55.3022C238.828 66.5456 231.62 74.4459 221.422 74.4459C216.888 74.4459 213.716 73.0654 209.797 69.2899V82.5125C209.614 91.7766 209.88 92.2922 214.929 92.3754H215.36V94.3546H197.34V92.3754H198.553C203.535 92.2922 203.768 91.8598 203.685 82.5125V51.0942C203.851 41.7469 203.602 41.3145 198.553 41.1149H197.34V39.1356C200.894 38.6596 204.415 37.9709 207.887 37.0732L208.999 37.1065ZM209.78 66.5455C212.936 70.4042 216.207 72.2171 219.978 72.2171C221.507 72.1724 223.01 71.8142 224.396 71.1649C225.781 70.5155 227.019 69.5887 228.033 68.4416C230.507 65.6807 231.803 61.1401 231.803 55.1358C231.803 48.8655 230.258 44.6575 226.82 41.9964C224.964 40.4261 222.606 39.5761 220.177 39.6013C216.241 39.6013 213.068 41.3976 209.73 45.5224L209.78 66.5455Z" fill="#853119"/>
<path d="M256.748 61.2233C256.566 70.4874 256.831 71.003 261.88 71.0862H262.744V73.0654H244.143V71.0862H245.521C248.079 71.186 249.291 70.7535 250.055 69.423C250.529 68.5616 250.71 67.5689 250.57 66.5955C250.66 65.6836 250.687 64.7668 250.653 63.8511V50.7117C250.653 41.88 250.221 41.198 245.255 41.2812H244.143V39.3685C248.081 39.0058 251.975 38.2594 255.768 37.1398H256.715L256.748 61.2233ZM257.346 19.4265C257.333 20.2919 257.065 21.1342 256.575 21.8475C256.086 22.5608 255.396 23.1132 254.594 23.4354C253.792 23.7575 252.912 23.8351 252.066 23.6582C251.22 23.4813 250.445 23.058 249.839 22.4413C249.232 21.8247 248.821 21.0423 248.657 20.1924C248.493 19.3425 248.584 18.4631 248.918 17.6646C249.251 16.8661 249.813 16.1843 250.533 15.7047C251.252 15.2251 252.097 14.9691 252.962 14.969C253.541 14.9712 254.114 15.0879 254.648 15.3125C255.183 15.537 255.667 15.865 256.075 16.2776C256.482 16.6902 256.804 17.1793 257.022 17.7168C257.241 18.2543 257.351 18.8296 257.346 19.4098V19.4265Z" fill="#853119"/>
<path d="M267.627 39.6013C271.139 39.029 274.603 38.1951 277.991 37.1065C278.925 39.9561 279.391 42.9389 279.369 45.9382C281.429 40.7988 286.012 37.1065 290.43 37.1065C291.901 37.0458 293.338 37.5574 294.44 38.5341C295.542 39.5107 296.224 40.8766 296.343 42.3456C296.356 42.7298 296.293 43.1128 296.157 43.4723C296.021 43.8317 295.814 44.1604 295.55 44.4391C295.285 44.7178 294.968 44.941 294.617 45.0956C294.265 45.2501 293.887 45.333 293.503 45.3394C291.975 45.3394 291.111 44.4912 290.181 42.2625C289.666 40.7157 288.985 40.1169 287.956 40.1169C286.295 40.1169 283.588 42.0795 281.877 44.6575C279.984 47.5848 279.651 49.2148 279.651 55.036V61.2232C279.469 70.4874 279.734 71.003 284.634 71.0862H285.83V73.0654H267.561V71.0862H268.507C273.49 71.0862 273.722 70.5872 273.639 61.2232V51.4435C273.822 42.1627 273.556 41.6471 268.507 41.4641H267.644L267.627 39.6013Z" fill="#853119"/>
<path d="M337.565 66.7119C337.382 71.186 334.741 73.9303 330.456 73.9303C326.67 73.9303 324.527 72.0342 323.813 67.926C317.9 72.1174 313.698 73.9303 309.928 73.9303C304.946 73.9303 301.358 70.8367 301.358 66.5456C301.358 61.3896 305.992 57.2814 317.302 52.641L323.813 49.9799V48.3167C323.813 44.7906 323.813 43.8426 323.132 42.6451C321.92 40.25 319.362 38.9527 315.924 38.9527C313.184 38.9527 310.792 39.6513 309.845 40.8488C309.164 41.6139 309.065 41.88 308.733 43.6762C308.384 46.1711 307.072 47.5349 305.295 47.5349C304.96 47.5585 304.624 47.5112 304.308 47.3962C303.993 47.2811 303.705 47.1008 303.464 46.867C303.223 46.6333 303.033 46.3513 302.908 46.0394C302.783 45.7275 302.724 45.3927 302.737 45.0567C302.866 44.0891 303.2 43.1601 303.715 42.3314C304.231 41.5027 304.916 40.7932 305.726 40.25C308.966 38.0131 312.859 36.9243 316.788 37.1564C322.617 37.1564 326.553 38.8196 328.696 42.1461C329.725 43.8093 329.892 44.9902 329.892 49.1982V63.1859C329.892 68.0758 329.892 68.0757 330.24 69.0238C330.375 69.5353 330.674 69.9883 331.091 70.3129C331.508 70.6375 332.021 70.8157 332.549 70.8201C334.359 70.8201 335.638 69.3564 336.07 66.6953L337.565 66.7119ZM319.129 53.8385C312.021 56.7658 308.334 60.4914 308.334 64.9156C308.334 68.4416 310.393 70.8367 313.316 70.8367C315.891 70.8367 319.661 68.9406 323.78 65.5975V51.9591L319.129 53.8385Z" fill="#853119"/>
<path d="M353.077 61.2232C352.911 70.4874 353.16 71.003 358.225 71.0862H359.255V73.0654H340.737V71.0862H341.85C344.424 71.1859 345.703 70.6703 346.384 69.4229C346.858 68.5615 347.038 67.5689 346.899 66.5954C347.009 65.6851 347.043 64.7671 346.998 63.8511V26.9775C347.164 20.1915 346.301 18.6614 341.85 18.6614H341.252V16.6821C344.976 16.6463 348.672 16.0405 352.213 14.8858H353.077V61.2232Z" fill="#853119"/>
<path d="M227.983 82.8119C232.965 82.6123 232.965 82.6123 234.311 82.6123C237.393 82.4743 240.473 82.9376 243.379 83.9761C244.766 84.4504 245.971 85.3462 246.825 86.5388C247.68 87.7314 248.141 89.1612 248.145 90.629C248.145 94.8869 244.907 97.6312 238.579 98.546C245.97 99.0948 249.972 102.305 249.972 107.527C249.993 109.087 249.59 110.623 248.806 111.971C248.022 113.318 246.886 114.427 245.521 115.178C243.329 116.342 240.854 116.758 235.274 116.758H221.987V115.594H223.266C227.269 115.594 227.667 114.929 227.568 107.976V91.4939C227.667 84.4917 227.319 83.9761 223 84.0759H222.353V82.9116L227.983 82.8119ZM233.563 98.1301C240.389 98.1301 242.881 96.2673 242.881 90.9783C242.881 87.6518 241.917 85.6061 239.692 84.5416C238.017 83.9655 236.245 83.7225 234.477 83.8264C233.816 83.8094 233.156 83.8428 232.5 83.9262V98.1301H233.563ZM232.5 106.862C232.373 109.152 232.49 111.449 232.849 113.715C233.198 115.078 234.261 115.644 236.603 115.644C241.867 115.644 244.608 112.85 244.608 107.577C244.608 101.59 241.818 99.2611 234.377 99.2611C233.663 99.2611 233.613 99.2611 232.5 99.2611V106.862Z" fill="#853119"/>
<path d="M276.413 106.613C276.465 108.059 276.222 109.5 275.699 110.849C275.175 112.197 274.382 113.424 273.368 114.455C272.355 115.486 271.141 116.299 269.803 116.844C268.464 117.388 267.029 117.654 265.584 117.623C262.998 117.602 260.487 116.744 258.426 115.178C257.197 114.083 256.224 112.73 255.578 111.214C254.932 109.699 254.628 108.06 254.689 106.413C254.702 104.985 254.996 103.573 255.554 102.258C256.112 100.943 256.923 99.7515 257.941 98.7507C258.959 97.7499 260.164 96.9597 261.487 96.4252C262.809 95.8906 264.224 95.6222 265.651 95.6353C267.077 95.6485 268.487 95.9428 269.8 96.5015C271.113 97.0603 272.303 97.8725 273.302 98.8918C274.301 99.9112 275.091 101.118 275.624 102.442C276.158 103.767 276.426 105.184 276.413 106.613ZM258.841 106.613C258.841 113.465 260.868 116.509 265.485 116.509C270.102 116.509 272.211 113.465 272.211 106.762C272.211 100.06 270.085 96.783 265.568 96.783C261.05 96.783 258.841 99.9098 258.841 106.613Z" fill="#853119"/>
<path d="M302.405 106.613C302.458 108.059 302.214 109.5 301.691 110.849C301.167 112.197 300.375 113.424 299.361 114.455C298.347 115.486 297.134 116.299 295.795 116.844C294.457 117.388 293.021 117.654 291.577 117.623C288.99 117.602 286.479 116.744 284.418 115.178C283.189 114.083 282.216 112.73 281.57 111.214C280.924 109.699 280.621 108.06 280.681 106.413C280.695 104.985 280.988 103.573 281.546 102.258C282.104 100.943 282.915 99.7515 283.933 98.7507C284.951 97.7499 286.156 96.9597 287.479 96.4252C288.802 95.8906 290.217 95.6222 291.643 95.6353C293.069 95.6485 294.479 95.9428 295.792 96.5015C297.105 97.0603 298.295 97.8725 299.294 98.8918C300.294 99.9112 301.083 101.118 301.617 102.442C302.15 103.767 302.418 105.184 302.405 106.613ZM284.834 106.613C284.834 113.465 286.86 116.509 291.477 116.509C296.094 116.509 298.22 113.465 298.22 106.762C298.22 100.06 296.094 96.783 291.577 96.783C287.059 96.783 284.834 99.9098 284.834 106.613Z" fill="#853119"/>
<path d="M326.47 96.3672V97.5314H326.271C324.61 97.6811 322.95 98.6458 320.392 100.858L318.216 102.737L316.638 103.951L323.896 112.484C325.823 114.762 326.736 115.411 328.198 115.627H328.447V116.792H318.332V115.627H318.582C320.109 115.627 320.873 115.261 320.873 114.563C320.873 113.864 320.658 113.848 319.213 112.118L313.998 106.03L312.935 106.845V109.789C312.835 115.211 312.935 115.527 315.775 115.627H315.924V116.792H305.527V115.627H306.291C307.819 115.627 308.517 115.361 308.982 114.663C309.228 114.145 309.331 113.571 309.281 112.999C309.32 112.446 309.32 111.89 309.281 111.336V89.2652C309.38 85.5063 308.832 84.6414 306.341 84.6414H305.992V83.4772C308.142 83.4299 310.273 83.0713 312.32 82.4127H312.885V105.448L315.011 103.918C316.527 102.823 317.964 101.622 319.312 100.326C319.813 99.9045 320.139 99.3114 320.226 98.6624C320.226 97.8973 319.728 97.548 318.714 97.548H318.332V96.3838L326.47 96.3672Z" fill="#853119"/>
<path d="M348.227 111.835C347.065 115.594 344.125 117.623 339.774 117.623C338.372 117.641 336.981 117.37 335.687 116.828C334.394 116.285 333.226 115.482 332.256 114.468C331.286 113.454 330.534 112.251 330.047 110.934C329.56 109.617 329.349 108.214 329.427 106.812C329.373 105.357 329.613 103.906 330.131 102.545C330.648 101.184 331.434 99.9414 332.442 98.891C333.449 97.8405 334.657 97.0035 335.993 96.43C337.33 95.8564 338.768 95.5579 340.222 95.5522C343.976 95.5522 347.314 97.4316 347.314 99.5106C347.315 99.935 347.153 100.344 346.863 100.653C346.573 100.962 346.176 101.148 345.753 101.174C344.474 101.174 343.976 100.675 343.61 98.9451C343.245 97.2154 342.448 96.6665 340.289 96.6665C335.838 96.6665 333.645 99.7102 333.645 105.848C333.564 108.612 334.229 111.347 335.572 113.764C336.2 114.572 337.011 115.219 337.938 115.65C338.865 116.081 339.882 116.284 340.903 116.243C342.304 116.349 343.698 115.961 344.845 115.148C345.991 114.334 346.817 113.144 347.181 111.785L348.227 111.835Z" fill="#853119"/>
<path d="M373.588 113.049C373.624 113.614 373.541 114.179 373.343 114.708C373.145 115.238 372.838 115.72 372.441 116.122C372.044 116.524 371.567 116.837 371.04 117.042C370.514 117.246 369.95 117.336 369.386 117.307C368.893 117.341 368.398 117.275 367.931 117.115C367.463 116.954 367.032 116.701 366.664 116.371C366.296 116.04 365.997 115.64 365.786 115.192C365.574 114.745 365.455 114.259 365.434 113.764C361.946 116.243 359.455 117.307 357.229 117.307C356.607 117.374 355.978 117.312 355.381 117.126C354.783 116.94 354.23 116.633 353.756 116.225C353.281 115.816 352.895 115.315 352.621 114.752C352.348 114.189 352.192 113.575 352.164 112.949C352.164 109.906 354.904 107.477 361.581 104.733L365.434 103.07V102.055C365.576 100.931 365.439 99.7881 365.035 98.7289C364.605 97.996 363.975 97.4014 363.219 97.0154C362.462 96.6293 361.612 96.4679 360.767 96.5501C360.125 96.4848 359.476 96.5498 358.86 96.7413C358.243 96.9328 357.672 97.2467 357.179 97.6645C356.764 98.1135 356.714 98.2799 356.515 99.3277C356.316 100.791 355.552 101.606 354.489 101.606C354.29 101.618 354.091 101.588 353.905 101.518C353.718 101.448 353.548 101.34 353.406 101.201C353.264 101.062 353.152 100.894 353.078 100.709C353.004 100.524 352.97 100.325 352.977 100.126C353.054 99.5568 353.251 99.0104 353.555 98.523C353.858 98.0356 354.261 97.6182 354.738 97.2986C356.653 95.9721 358.957 95.3278 361.282 95.469C364.719 95.469 367.061 96.4836 368.324 98.4628C368.938 99.4774 369.038 100.126 369.038 102.621V110.937C369.038 113.831 369.038 113.831 369.237 114.396C369.319 114.697 369.496 114.963 369.742 115.155C369.987 115.347 370.288 115.454 370.599 115.461C371.662 115.461 372.426 114.596 372.675 113.016L373.588 113.049ZM362.693 105.448C358.491 107.112 356.316 109.34 356.316 111.985C356.26 112.412 356.294 112.846 356.414 113.259C356.535 113.672 356.74 114.056 357.016 114.386C357.292 114.716 357.634 114.985 358.019 115.176C358.405 115.366 358.826 115.475 359.255 115.494C361.58 115.114 363.735 114.035 365.434 112.401V104.334L362.693 105.448Z" fill="#853119"/>
<path d="M377.242 110.771H378.205C378.55 112.225 379.227 113.58 380.182 114.729C380.696 115.296 381.321 115.751 382.018 116.065C382.715 116.38 383.47 116.548 384.234 116.559C384.725 116.587 385.217 116.512 385.677 116.339C386.138 116.166 386.557 115.899 386.909 115.555C387.261 115.21 387.537 114.796 387.72 114.339C387.902 113.882 387.988 113.392 387.971 112.9C387.968 112.333 387.844 111.773 387.61 111.257C387.375 110.741 387.034 110.281 386.609 109.906C385.537 109.005 384.326 108.286 383.022 107.777C381.262 107.126 379.692 106.046 378.455 104.633C377.709 103.652 377.302 102.456 377.292 101.224C377.27 99.7472 377.832 98.3219 378.856 97.2592C379.88 96.1964 381.282 95.5828 382.756 95.5522C383.612 95.5526 384.457 95.7438 385.23 96.1121C386.003 96.4803 386.684 97.0163 387.224 97.6811C387.627 97.1361 387.951 96.537 388.187 95.9014H389.101V102.188H388.187C387.473 98.862 385.297 96.6665 382.856 96.6665C382.434 96.6487 382.013 96.7149 381.618 96.8611C381.222 97.0074 380.859 97.2309 380.55 97.5187C380.241 97.8064 379.992 98.1527 379.818 98.5374C379.643 98.9222 379.547 99.3378 379.534 99.7601C379.574 100.308 379.732 100.841 379.995 101.323C380.259 101.805 380.623 102.225 381.062 102.554C382.104 103.263 383.217 103.859 384.384 104.334C386.05 104.928 387.568 105.876 388.835 107.112C389.934 108.359 390.526 109.973 390.496 111.636C390.513 112.444 390.363 113.247 390.056 113.994C389.749 114.742 389.291 115.417 388.711 115.98C388.131 116.542 387.442 116.978 386.686 117.261C385.93 117.543 385.123 117.667 384.317 117.623C383.367 117.645 382.424 117.45 381.561 117.053C380.698 116.655 379.936 116.065 379.335 115.328C378.824 115.961 378.446 116.691 378.222 117.473H377.259L377.242 110.771Z" fill="#853119"/>
<path d="M398.816 103.319C398.716 104.583 398.717 105.132 398.717 105.798C398.579 108.504 399.152 111.199 400.377 113.615C400.928 114.452 401.681 115.137 402.567 115.605C403.452 116.073 404.442 116.309 405.443 116.293C406.8 116.355 408.144 116 409.293 115.274C410.442 114.549 411.342 113.488 411.87 112.234H413.033C412.409 113.906 411.265 115.332 409.77 116.303C408.274 117.273 406.507 117.736 404.729 117.623C398.949 117.623 394.598 112.949 394.598 106.762C394.598 100.326 398.849 95.5522 404.563 95.5522C405.631 95.5008 406.699 95.6611 407.705 96.024C408.711 96.3869 409.635 96.9452 410.425 97.6669C411.216 98.3886 411.856 99.2594 412.309 100.229C412.762 101.199 413.019 102.25 413.066 103.319H398.816ZM408.648 102.288C408.727 101.939 408.761 101.581 408.748 101.224C408.792 100.624 408.711 100.022 408.508 99.4564C408.305 98.8906 407.986 98.3738 407.571 97.9395C407.156 97.5051 406.655 97.1629 406.099 96.935C405.544 96.7071 404.947 96.5987 404.347 96.6166C403.489 96.6167 402.645 96.8239 401.884 97.2205C401.124 97.6172 400.47 98.1917 399.979 98.8952C399.36 99.9013 398.996 101.043 398.916 102.222L408.648 102.288Z" fill="#853119"/>
<path d="M4.43453 127.42C4.66729 126.794 4.97991 126.202 5.3646 125.657C6.06845 124.913 6.59423 124.019 6.90212 123.042C7.21 122.066 7.29192 121.031 7.14169 120.018C6.83936 118.705 6.88573 117.335 7.27618 116.045C7.66664 114.756 8.38756 113.591 9.36722 112.667C12.908 108.825 16.021 104.609 18.6513 100.093C20.1294 97.731 22.7702 96.0844 24.9625 94.1883C25.6268 93.6062 26.341 93.8889 26.3576 94.8203C26.3907 95.9398 26.2734 97.0586 26.0088 98.1468C25.66 99.4108 25.7597 99.81 27.0717 99.4441C29.181 98.9784 31.2238 98.2466 33.3165 97.6811C34.8505 97.1567 36.4381 96.8053 38.0499 96.6333C40.4913 96.6333 42.9493 96.9493 45.3908 96.9659C46.4682 96.9657 47.527 96.6848 48.4633 96.1509C50.5436 94.7949 52.9576 94.0409 55.4388 93.9721C59.395 93.9569 63.3221 93.294 67.0647 92.0095C68.696 91.3993 70.2879 90.6882 71.8313 89.8806C75.3854 88.1342 78.84 86.1882 82.4606 84.5915C85.7126 83.0183 89.1942 81.974 92.7744 81.4979C95.2989 81.2318 97.7569 80.5333 100.298 80.1008C101.399 79.9475 102.508 79.8531 103.62 79.8181C107.855 79.6351 112.173 78.9033 116.325 79.4355C119.796 79.8846 123.45 79.5852 126.838 81.0988C129.199 82.1055 131.705 82.7287 134.262 82.9449C136.449 83.3754 138.582 84.0447 140.623 84.9408C143.264 85.8389 145.988 86.471 148.645 87.3026C151.751 88.2506 154.823 89.3151 157.929 90.2798C159.635 90.9604 161.412 91.4458 163.227 91.7267C165.974 92.0086 168.556 93.1759 170.585 95.0532C172.391 96.3517 174.277 97.535 176.231 98.5959C177.128 99.1614 178.258 99.5273 178.474 101.107L175.966 100.326C176.663 101.989 178.075 101.872 179.287 101.723C179.747 101.595 180.235 101.626 180.675 101.81C181.115 101.994 181.48 102.32 181.712 102.737C181.967 103.211 182.339 103.612 182.792 103.902C185.765 105.565 187.16 108.592 189.219 111.053C190.242 112.111 191.354 113.079 192.541 113.947C192.674 114.064 192.939 114.097 193.022 114.23C194.199 115.953 195.857 117.29 197.789 118.072C198.686 118.555 199.55 119.054 200.397 119.586C201.244 120.118 201.543 120.401 202.34 120.966C200.679 122.064 199.417 121.133 198.171 121.116L197.706 119.702L195.53 120.55L195.348 121.049C195.647 121.216 196.029 121.315 196.211 121.548C196.394 121.781 196.311 122.147 196.361 122.446C196.068 122.48 195.773 122.48 195.48 122.446C194.534 122.297 193.604 122.081 192.657 121.997C192.491 121.997 192.043 122.48 192.092 122.613C192.339 123.378 192.656 124.118 193.039 124.825C193.869 126.289 194.7 127.736 195.613 129.166C195.725 129.284 195.854 129.385 195.995 129.465C195.995 129.216 196.178 129.033 196.145 128.867C195.813 126.904 195.796 126.821 197.806 126.671C199.035 126.588 199.35 126.089 199.018 125.008C199.018 124.775 199.018 124.526 198.918 124.293C198.703 123.145 199.035 122.629 200.297 122.912C201.065 123.07 201.841 123.186 202.622 123.261V121.598C204.632 121.199 211.358 124.509 212.903 126.871C211.989 126.754 211.242 126.688 210.677 126.588C209.371 126.322 208.052 126.127 206.724 126.006C205.562 126.006 205.296 126.904 205.18 127.902C205.18 128.334 204.765 129.149 204.632 129.133C202.871 128.933 200.978 130.33 199.35 128.684C198.973 128.407 198.566 128.173 198.138 127.985C198.338 128.747 198.722 129.448 199.254 130.027C199.787 130.607 200.453 131.048 201.194 131.311C202.473 131.744 203.801 132.093 205.064 132.559C205.593 132.832 206.084 133.173 206.525 133.573C205.617 134.34 204.508 134.829 203.33 134.983C202.152 135.136 200.955 134.947 199.882 134.438C198.848 134.134 197.76 134.054 196.693 134.205C192.757 134.472 189.435 132.808 186.113 131.029C183.838 129.798 181.38 128.9 179.204 127.553C177.029 126.205 174.604 126.022 173.308 123.627C172.926 122.929 171.78 122.679 171.016 122.164C170.222 121.684 169.476 121.127 168.791 120.501C168.077 119.785 167.728 118.588 166.349 118.837C166.277 118.841 166.205 118.828 166.139 118.799C166.072 118.77 166.014 118.727 165.967 118.671L161.865 114.214C160.869 114.862 160.204 114.214 159.689 113.132C159.259 112.265 158.782 111.421 158.261 110.604C157.888 110.096 157.489 109.608 157.065 109.141L156.384 111.802C155.338 110.322 154.458 109.124 153.611 107.893C152.498 106.23 151.385 104.567 150.289 102.904C150.057 102.554 150.023 102.039 149.758 101.739C149.375 101.357 148.951 101.016 148.495 100.725C148.329 101.257 147.964 101.806 148.047 102.388C148.495 105.265 149.127 108.126 149.525 111.004C149.774 112.9 149.309 114.979 149.924 116.725C150.754 119.12 151.003 121.715 152.564 123.96C155.288 127.869 159.208 127.902 163.111 128.151C163.111 128.151 163.277 128.151 163.443 128.301L162.148 129.798V130.247L165.237 130.397C166.067 132.06 166.898 134.122 168.06 135.985C169.439 138.23 171.05 140.326 172.544 142.505C173.017 143.162 173.445 143.851 173.823 144.567C174.221 145.34 174.576 146.134 174.886 146.946C175.102 147.495 175.218 148.06 175.501 148.975L173.441 148.16L175.384 151.004L175.152 151.287L173.757 150.655L173.591 151.969L172.411 151.819C172.411 151.985 172.312 152.168 172.279 152.351C172.179 153.183 171.797 153.216 171.066 152.917C168.558 151.886 166.084 150.821 163.493 149.973C162.36 149.718 161.197 149.623 160.038 149.69C158.909 149.69 157.647 150.006 157.381 148.293C157.381 148.027 156.833 147.678 156.501 147.628C155.312 147.445 154.115 147.329 152.913 147.278C151.468 147.278 150.023 147.278 148.595 147.278C148.012 147.156 147.451 146.943 146.934 146.646L144.925 145.881L144.808 146.214L143.363 144.933L142.533 145.915C141.935 145.79 141.351 145.606 140.789 145.366C138.136 144.128 135.165 143.744 132.286 144.268C131.621 144.372 130.94 144.303 130.309 144.068C129.097 143.503 128.084 142.405 126.523 143.137C126.257 143.253 125.676 142.522 125.294 142.555C124.401 142.584 123.529 142.83 122.752 143.27C121.773 144.002 120.909 144.451 119.796 143.719C119.585 143.876 119.395 144.061 119.232 144.268C117.571 146.996 114.664 147.029 112.023 146.863C110.628 146.779 109.333 145.532 107.938 144.95C106.991 144.551 105.928 144.468 104.948 144.152C102.706 143.47 100.331 143.453 98.1555 142.272C96.6743 141.809 95.1194 141.628 93.5716 141.74C92.3786 141.82 91.1802 141.719 90.0174 141.44C88.9 140.772 87.8824 139.949 86.9947 138.996L84.9352 138.53C84.6529 138.53 84.2211 138.264 84.1214 138.364C83.208 139.445 82.4606 138.663 81.6136 138.23C79.1057 136.933 76.8968 137.881 74.8041 139.228C71.1307 141.814 67.0569 143.775 62.7465 145.033C60.1973 145.755 57.7226 146.719 55.3558 147.91C53.1801 148.908 51.0874 150.123 48.9948 151.237C48.4713 151.589 48.0341 152.055 47.7159 152.601C46.4703 154.58 45.2911 156.626 44.0621 158.622C43.7854 159.103 43.3927 159.508 42.9198 159.798C42.447 160.089 41.9089 160.256 41.3549 160.285C40.84 160.285 40.3584 160.634 39.8436 160.684C38.4339 160.867 37.0131 160.95 35.5918 160.933C35.2929 160.933 34.861 160.085 34.7614 159.586C34.7473 158.746 34.9512 157.917 35.3529 157.179C35.7546 156.442 36.3405 155.821 37.0533 155.378C39.8802 154.311 42.2156 152.239 43.6136 149.557C44.8094 147.046 47.417 146.081 49.6591 144.75C52.2334 143.22 54.8409 141.74 57.3986 140.143C57.8138 139.877 57.9799 139.179 58.2622 138.68C57.6145 138.68 56.8007 138.68 56.3523 138.962C55.6502 139.666 54.7762 140.173 53.8174 140.433C52.8587 140.692 51.8486 140.696 50.8881 140.443C48.8085 139.925 46.7014 139.525 44.5769 139.245C44.2917 139.246 44.0076 139.28 43.7299 139.345C42.5009 139.528 41.2386 139.628 40.0262 139.91C39.0962 140.11 37.917 139.561 37.3025 140.975C37.153 141.341 35.924 141.258 35.1766 141.357C33.5988 141.59 32.0044 141.823 30.4266 141.989C29.181 142.139 27.9188 142.156 26.6897 142.305C26.1494 142.392 25.6239 142.555 25.1285 142.788C24.1857 143.361 23.1833 143.829 22.139 144.185C18.0321 145.214 13.7466 145.305 9.59973 144.451C8.02194 144.052 7.15831 143.187 7.12509 141.84C7.12509 139.96 8.27107 139.095 10.7955 139.095C12.9048 139.095 15.0307 139.095 17.1233 138.929C17.5717 138.929 17.9704 138.197 18.4022 137.815C17.9537 137.449 17.5385 136.833 17.0403 136.75C13.1373 136.085 9.21774 135.503 5.29816 134.954C3.85324 134.754 2.34188 135.187 0.946781 134.289C-0.448321 133.391 -0.448328 133.141 0.0831394 131.744C0.861279 129.963 2.12839 128.441 3.73699 127.353C3.85324 127.27 4.10237 127.353 4.28506 127.353C5.38122 127.702 6.11198 127.353 6.32789 126.272L6.01232 125.873L4.43453 127.42ZM166.399 145.366C166.268 144.99 166.184 144.598 166.15 144.201C166.349 140.276 163.974 137.898 161.168 135.885C158.887 134.592 156.387 133.735 153.793 133.357C149.791 132.426 145.772 131.528 141.869 130.264C139.486 129.529 137.466 127.926 136.205 125.773C134.38 122.512 132.339 119.378 130.093 116.392C129.18 115.145 128.117 115.245 127.486 116.625C126.855 118.006 126.34 119.153 125.825 120.451C125.113 122.227 124.792 124.136 124.883 126.047C124.975 127.959 125.478 129.828 126.357 131.528C127.037 132.842 128.615 133.889 127.17 135.885C128.476 135.696 129.801 135.696 131.106 135.885C132.172 136.422 133.142 137.13 133.98 137.981L134.395 137.532L133.398 135.869C134.158 136.004 134.907 136.193 135.641 136.434C136.232 136.586 136.768 136.903 137.185 137.349C137.8 138.247 138.431 138.497 139.377 137.998C141.935 136.617 142.433 136.767 143.862 139.378C144.003 139.547 144.165 139.698 144.343 139.827C144.875 138.68 145.556 139.079 146.253 139.661C146.419 139.811 146.718 139.777 146.934 139.877C148.497 140.517 150.017 141.256 151.485 142.089C152.315 142.638 152.963 143.154 153.893 142.522C155.853 145.332 163.094 146.713 166.466 145.366H166.399ZM102.424 121.482V126.056L106.543 127.253C106.858 126.189 107.207 125.058 107.506 123.927C107.722 123.095 108.037 122.929 109.084 123.228C107.539 124.692 108.27 125.773 109.084 127.42C109.208 127.779 109.408 128.108 109.67 128.383C109.933 128.658 110.252 128.874 110.605 129.014C110.958 129.155 111.337 129.217 111.717 129.198C112.097 129.178 112.467 129.076 112.804 128.9L113.169 130.131C115.146 129.482 115.478 131.328 116.491 132.176C117.528 133.228 118.504 134.339 119.414 135.503C119.726 134.731 119.87 133.901 119.836 133.07C119.801 132.238 119.59 131.423 119.215 130.679C118.418 128.85 117.438 127.12 116.674 125.291C115.329 122.081 113.352 119.054 113.701 115.311C113.784 114.48 113.253 114.014 112.289 114.047C111.816 114.005 111.351 113.893 110.911 113.715C112.017 112.729 113.266 111.916 114.614 111.303C116.523 110.918 118.464 110.717 120.411 110.704C121.341 110.704 122.287 110.704 123.467 110.588C121.806 108.193 120.029 107.461 117.737 108.026C116.906 108.243 116.076 108.775 115.312 108.958C114.318 109.16 113.303 109.239 112.289 109.191C111.442 109.191 110.778 109.008 110.628 110.189C110.582 110.416 110.489 110.631 110.354 110.82C110.22 111.009 110.047 111.168 109.848 111.286C107.637 112.289 105.232 112.789 102.806 112.75C102.54 113.748 101.527 115.012 103.669 115.494C103.797 115.57 103.904 115.677 103.979 115.805C104.055 115.932 104.097 116.077 104.101 116.226C104.043 116.399 103.952 116.558 103.832 116.695C103.712 116.832 103.567 116.944 103.404 117.024C102.942 117.136 102.467 117.186 101.992 117.174C102.49 115.295 102.391 115.195 100.514 115.511C100.133 115.563 99.7633 115.675 99.4177 115.843C97.7569 116.609 96.0961 117.39 94.4352 118.189C94.3028 118.246 94.1839 118.331 94.0864 118.438C93.3225 119.253 92.5751 120.101 91.7115 121.033C91.7115 121.415 91.9108 122.58 91.7115 122.696C90.2998 123.261 90.0506 124.792 89.1206 125.623C88.0776 126.386 86.9655 127.048 85.7989 127.602C85.666 127.935 85.5664 128.966 85.1512 129.116C83.2562 129.848 81.6046 131.099 80.3846 132.725C79.986 133.224 80.1686 134.222 80.069 134.987C80.6131 135.115 81.1757 135.143 81.7298 135.07C83.2246 134.538 84.6529 133.407 86.1311 133.407C88.9213 133.407 89.4527 131.012 90.8644 129.499C91.6305 128.579 92.4455 127.702 93.3059 126.871C93.9702 126.289 96.1127 127.054 94.9667 124.925C94.9667 124.925 95.0664 124.758 95.1162 124.675C95.7639 123.661 96.4947 122.563 97.7735 122.496C98.3548 122.496 98.9693 123.212 99.6004 123.511C99.9459 123.579 100.301 123.579 100.647 123.511C100.639 123.203 100.577 122.899 100.464 122.613C100.14 122.178 99.7785 121.772 99.3845 121.399L102.424 121.482ZM40.2754 125.058L39.8602 124.692L41.521 122.363C41.3549 122.18 41.1224 121.615 40.7404 121.498C40.1409 121.273 39.4798 121.273 38.8803 121.498C37.2194 122.596 35.7413 123.86 34.1801 125.058C33.7981 125.34 33.2334 125.507 33.0341 125.889C32.5359 126.821 32.0708 126.788 31.3733 126.172C31.209 126.014 31.0141 125.892 30.8005 125.812C30.587 125.733 30.3594 125.698 30.132 125.711C29.9046 125.723 29.6822 125.783 29.4786 125.885C29.275 125.987 29.0945 126.13 28.9485 126.305C28.0974 126.887 27.1539 127.32 26.1583 127.586C25.6911 127.717 25.213 127.806 24.7299 127.852L25.278 129.249C23.7833 129.365 22.4546 129.432 21.1425 129.582C20.578 129.68 20.0224 129.824 19.4817 130.014C19.9467 130.43 20.4118 130.829 20.8602 131.262C20.8602 131.262 20.8602 131.428 20.9598 131.694L18.7675 132.326C18.7172 131.998 18.6021 131.683 18.4289 131.401C18.2556 131.118 18.0278 130.872 17.7587 130.679C17.4896 130.485 17.1846 130.347 16.8616 130.273C16.5386 130.199 16.2041 130.19 15.8777 130.247C14.848 130.22 13.824 130.086 12.8218 129.848C12.5108 129.742 12.1865 129.68 11.8585 129.665C9.88208 130.014 7.90568 130.33 5.9625 130.829C5.34799 130.979 4.84975 131.611 4.51758 131.86L5.84624 133.657L15.7116 132.609L14.549 134.605L19.8139 133.141C19.9467 133.141 20.0298 132.925 20.1627 132.892C20.6379 132.737 21.1276 132.631 21.6242 132.576C22.3383 132.576 23.0691 132.742 23.7667 132.576C25.2333 132.391 26.6868 132.114 28.1181 131.744C30.7256 131.062 33.931 132.376 35.8741 129.465C38 129.465 39.8934 127.087 42.2351 128.783C42.3846 128.9 42.7666 128.7 43.0324 128.617C43.8942 128.172 44.8794 128.027 45.8326 128.205C46.7858 128.383 47.6529 128.873 48.2972 129.598C48.5414 129.824 48.8385 129.984 49.1608 130.064C49.8128 130.315 50.3877 130.732 50.8278 131.275C51.2679 131.818 51.5579 132.467 51.6687 133.158C51.6687 133.457 51.9677 133.723 52.1337 133.989C52.25 133.74 52.3995 133.474 52.4991 133.208C52.7981 132.476 53.0638 131.744 53.3461 131.012L53.9939 131.228L53.3295 134.305L55.2063 132.642L57.083 132.343C57 131.86 56.9502 131.361 56.8173 130.879C56.6844 130.397 56.153 129.499 56.2028 128.833C56.3523 126.954 56.7177 125.091 56.9336 123.195C56.9327 123.012 56.8956 122.831 56.8243 122.663C56.7531 122.494 56.649 122.341 56.5183 122.214C56.4021 122.081 55.9869 122.214 55.7544 122.214C55.0402 122.513 54.3759 122.862 53.5122 123.278C53.6166 123.744 53.6166 124.226 53.5122 124.692C53.0226 125.778 52.468 126.833 51.8514 127.852C51.8408 127.035 51.8796 126.219 51.9676 125.407C52.2054 124.311 52.2054 123.177 51.9676 122.081C51.2867 120.417 50.3068 118.97 50.8881 117.091C50.8881 117.091 50.7552 116.974 50.3899 116.725C49.9248 118.987 49.958 121.399 47.8488 123.062L47.1346 120.9C46.3873 121.482 45.5734 121.814 45.2081 122.43C44.361 123.86 44.4275 123.91 43.2317 122.796L40.2754 125.058ZM168.475 107.561C169.804 109.34 170.95 111.137 173.325 109.59C174.454 110.671 174.155 112.916 176.165 113.299C176.331 113.299 176.414 113.698 176.53 113.898C176.933 114.651 177.383 115.379 177.876 116.076C178.208 116.525 178.689 117.157 179.354 116.293C179.487 116.143 180.184 116.293 180.45 116.442C182.21 117.839 183.954 119.27 185.632 120.767C187.309 122.264 188.123 122.43 189.418 121.765C188.849 120.779 188.205 119.84 187.492 118.954C186.462 117.823 185.283 116.841 184.17 115.81C183.772 115.461 183.39 114.962 182.925 114.862C181.738 114.58 180.701 113.862 180.018 112.85C179.363 112.18 178.652 111.568 177.892 111.02L181.015 110.704V110.272L175.351 108.608L177.876 108.126C177.614 107.905 177.308 107.743 176.979 107.651C176.649 107.559 176.304 107.54 175.966 107.594C174.587 108.159 173.64 107.245 172.644 106.845C171.983 106.464 171.365 106.012 170.8 105.498C169.671 104.733 168.509 104.018 167.479 103.22C166.947 102.837 166.582 102.188 166.017 101.856C165.394 101.43 164.675 101.167 163.925 101.091C163.543 101.091 163.127 101.789 162.546 102.338C165.868 103.586 166.034 106.862 167.861 109.157L168.475 107.561ZM131.588 102.854C131.854 104.001 132.003 104.8 132.219 105.598C132.661 106.738 132.989 107.919 133.199 109.124C133.146 111.238 133.847 113.302 135.176 114.945C135.807 115.657 136.222 116.534 136.371 117.473C136.471 118.771 137.667 120.6 138.962 120.617C139.411 120.617 139.876 120.151 140.341 119.885C140.025 119.552 139.776 119.054 139.394 118.887C139.012 118.721 138.497 118.887 138.049 118.887C137.757 118.863 137.468 118.813 137.185 118.737C137.384 118.488 137.534 118.122 137.8 118.006C138.301 117.838 138.811 117.699 139.328 117.59C139.604 117.48 139.871 117.347 140.125 117.191C139.959 116.941 139.826 116.525 139.593 116.442C139.339 116.406 139.098 116.307 138.892 116.154C138.686 116.001 138.521 115.799 138.412 115.567C138.303 115.334 138.254 115.078 138.269 114.821C138.284 114.564 138.362 114.316 138.497 114.097C138.21 114.072 137.921 114.072 137.634 114.097C136.139 114.396 135.757 113.083 135.209 112.251C134.661 111.419 134.926 110.588 135.84 110.006C136.139 109.806 136.139 108.742 135.84 108.342C135.369 107.809 134.806 107.364 134.179 107.028C134.353 106.123 134.184 105.186 133.705 104.398C133.226 103.611 132.471 103.031 131.588 102.771V102.854ZM39.3951 114.945L39.91 115.045C40.1591 114.446 40.3916 113.814 40.674 113.232C41.4214 111.569 42.2352 109.906 42.9659 108.243C43.0822 107.96 42.9659 107.561 42.8497 107.211C42.5001 107.279 42.1636 107.403 41.8532 107.577C40.549 108.892 39.7643 110.635 39.6442 112.484C39.5213 113.272 39.4382 114.066 39.3951 114.862V114.945ZM40.1757 106.48C39.3074 107.141 38.3655 107.699 37.3689 108.143C37.1471 108.199 36.9394 108.301 36.7588 108.442C36.5782 108.583 36.4286 108.76 36.3195 108.961C36.2103 109.163 36.1439 109.385 36.1245 109.613C36.105 109.841 36.1329 110.071 36.2063 110.288C36.4945 111.124 36.8909 111.918 37.3855 112.65L40.1757 106.48ZM50.4895 132.908L45.2247 135.769C45.7229 136.617 46.5533 136.501 47.4336 136.351C48.6128 136.151 49.3103 134.688 50.7552 135.087C50.9393 134.866 51.0496 134.592 51.0708 134.305C50.932 133.792 50.737 133.296 50.4895 132.825V132.908ZM111.127 97.3484L112.09 99.0117C112.507 99.3563 113.004 99.5903 113.535 99.6921C114.066 99.7938 114.615 99.76 115.129 99.5938C115.234 99.4851 115.311 99.3529 115.354 99.2082C115.398 99.0636 115.406 98.9107 115.378 98.7622C114.945 98.0659 114.288 97.5382 113.515 97.2661C112.742 96.994 111.9 96.9937 111.127 97.2653V97.3484ZM112.472 141.723L112.638 141.041C111.276 140.376 109.931 139.677 108.519 139.112C108.204 138.979 107.689 139.328 107.273 139.445C107.523 139.811 107.722 140.343 108.071 140.509C108.902 140.908 109.769 141.226 110.662 141.457C111.26 141.559 111.865 141.621 112.472 141.64V141.723ZM157.979 100.808L157.431 101.34L158.66 105.082L159.623 103.286L160.387 104.949C161.3 103.702 160.387 102.92 160.005 102.305C159.428 101.663 158.742 101.128 157.979 100.725V100.808ZM92.1433 106.413V108.359C92.6933 108.448 93.2541 108.448 93.8041 108.359C94.4203 108.065 94.9311 107.588 95.2669 106.993C95.6028 106.397 95.7473 105.713 95.6809 105.033L93.9204 107.278L92.1433 106.413ZM121.872 99.6437C122.221 100.06 122.719 100.392 122.703 100.675C122.52 102.571 123.965 102.055 125.061 102.604C123.749 99.5605 123.35 99.2445 121.872 99.5605V99.6437ZM154.076 97.5647C154.823 96.4337 153.777 95.9014 153.279 95.4025C152.653 94.7898 151.975 94.2332 151.252 93.7393L151.12 93.9721L154.076 97.5647ZM107.406 106.413C107.058 105.498 106.842 104.899 106.609 104.317C106.476 104.001 106.327 103.702 106.194 103.403C105.895 103.602 105.48 103.752 105.347 104.035C105.214 104.317 105.48 104.683 105.696 104.899C106.061 105.365 106.576 105.764 107.406 106.413ZM137.119 112.916L137.667 110.571C137.368 110.571 136.853 110.355 136.803 110.455C136.646 110.626 136.526 110.829 136.451 111.05C136.377 111.271 136.35 111.505 136.372 111.737C136.394 111.969 136.464 112.194 136.579 112.397C136.693 112.601 136.849 112.777 137.036 112.916H137.119ZM99.8163 102.288L100.065 102.654C100.61 102.43 101.106 102.102 101.527 101.689C101.676 101.49 101.145 100.825 100.763 100.026L99.8163 102.288ZM11.244 121.133L10.7291 120.75L8.58662 123.478L9.11809 123.894L11.244 121.133ZM122.686 90.5625H122.287C122.171 90.8785 121.889 91.2777 121.988 91.4773C122.305 91.9648 122.666 92.4214 123.068 92.8411C123.201 92.6249 123.5 92.3588 123.45 92.2091C123.225 91.6469 122.97 91.0972 122.686 90.5625ZM138.497 104.401L138.231 104.683C138.53 105.066 138.813 105.764 139.128 105.764C139.444 105.764 139.992 105.282 140.44 104.999L140.241 104.6L138.497 104.401ZM25.7098 115.162L25.9424 115.527C26.3395 115.411 26.7153 115.232 27.0551 114.995C27.1548 114.895 26.9223 114.363 26.7396 114.097C26.5569 113.831 26.3077 114.097 26.042 113.997L25.7098 115.162Z" fill="#853119"/>
</g>
<defs>
<clipPath id="clip0_157_6469">
<rect width="413" height="161" fill="#853119"/>
</clipPath>
</defs>
</svg>
