<svg width="48" height="48" viewBox="0 0 48 48" fill="none" xmlns="http://www.w3.org/2000/svg">
<path d="M43.0659 14.2234C43.0964 14.6498 43.0964 15.0762 43.0964 15.5026C43.0964 28.5076 33.198 43.4924 15.1066 43.4924C9.53297 43.4924 4.35534 41.8781 0 39.0762C0.791906 39.1675 1.55325 39.198 2.37563 39.198C6.97453 39.198 11.2081 37.6448 14.5888 34.995C10.2639 34.9036 6.63956 32.0711 5.39081 28.1726C6 28.2639 6.60909 28.3249 7.24875 28.3249C8.13197 28.3249 9.01528 28.203 9.83756 27.9899C5.32997 27.0761 1.94916 23.1168 1.94916 18.3351V18.2133C3.25875 18.9443 4.78172 19.4011 6.39581 19.4619C3.74606 17.6954 2.01009 14.6802 2.01009 11.269C2.01009 9.44166 2.49731 7.76653 3.35016 6.3046C8.19281 12.2741 15.472 16.1725 23.6344 16.599C23.4821 15.868 23.3907 15.1067 23.3907 14.3453C23.3907 8.92388 27.7765 4.50769 33.2283 4.50769C36.0608 4.50769 38.6191 5.6955 40.4161 7.61428C42.6394 7.18791 44.7713 6.36553 46.6598 5.23866C45.9287 7.52297 44.3754 9.44175 42.3349 10.6599C44.3146 10.4468 46.2334 9.8985 47.9998 9.13716C46.6599 11.0863 44.9847 12.8223 43.0659 14.2234Z" fill="#E9F6FB"/>
</svg>
